<svg xmlns="http://www.w3.org/2000/svg" viewBox="0 0 64 64">
      <rect x="22" y="16" width="20" height="6" rx="3" fill="#38bdf8" />
      <rect x="22" y="42" width="20" height="6" rx="3" fill="#0ea5e9" />
      <path fill="#22d3ee" d="M24 22h16c0 4.6-3.4 8.2-8 11 4.6 2.8 8 6.4 8 11H24c0-4.6 3.4-8.2 8-11-4.6-2.8-8-6.4-8-11z" />
      <path fill="#0ea5e9" d="M26 26h12c0 2.4-2.2 4.2-6 5.6-3.8-1.4-6-3.2-6-5.6z" />
      <path fill="#14b8a6" d="M26 38c0-2.4 2.2-4.2 6-5.6 3.8 1.4 6 3.2 6 5.6H26z" />
    </svg>
