<svg xmlns="http://www.w3.org/2000/svg" viewBox="0 0 64 64">
      <circle cx="32" cy="30" r="14" fill="#22c55e"/>
      <path fill="#14532d" d="M18 18c-4 4-6 10-6 14 4 0 10-2 14-6-4-4-6-10-8-8z"/>
      <path fill="#14532d" d="M46 18c4 4 6 10 6 14-4 0-10-2-14-6 4-4 6-10 8-8z"/>
      <path fill="#14532d" d="M22 46c-4-2-6-6-8-10 4 0 8 2 12 6-2 2-2 4-4 4z"/>
      <path fill="#14532d" d="M42 46c4-2 6-6 8-10-4 0-8 2-12 6 2 2 2 4 4 4z"/>
      <rect x="26" y="40" width="12" height="12" rx="3" fill="#0f172a"/>
    </svg>
