<svg xmlns="http://www.w3.org/2000/svg" viewBox="0 0 24 24" fill="none" stroke="currentColor" stroke-width="1.5">
      <path stroke-linecap="round" stroke-linejoin="round" d="M10.325 4.317c.427-1.756 3.002-1.756 3.429 0a1.724 1.724 0 002.586 1.066c1.544-.89 3.31.876 2.42 2.42a1.724 1.724 0 001.065 2.572c1.756.426 1.756 3.002 0 3.429a1.724 1.724 0 00-1.066 2.586c.89 1.544-.876 3.31-2.42 2.42a1.724 1.724 0 00-2.586 1.065c-.426 1.756-3.002 1.756-3.429 0a1.724 1.724 0 00-2.586-1.066c-1.544.89-3.31-.876-2.42-2.42a1.724 1.724 0 00-1.065-2.586c-1.756-.426-1.756-3.002 0-3.429a1.724 1.724 0 001.066-2.586c-.89-1.544.876-3.31 2.42-2.42a1.724 1.724 0 002.586-1.065z"/>
      <circle cx="12" cy="12" r="3" />
    </svg>
