<?xml version="1.0" encoding="utf-8"?>
<!-- Generator: Adobe Adobe Illustrator 29.2.0, SVG Export Plug-In . SVG Version: 6.00 Build 0)  -->
<svg version="1.1" id="Layer_4" xmlns="http://www.w3.org/2000/svg" xmlns:xlink="http://www.w3.org/1999/xlink" x="0px" y="0px"
	 width="1500px" height="1922.4px" viewBox="0 0 1500 1922.4" style="enable-background:new 0 0 1500 1922.4;" xml:space="preserve"
	>
<style type="text/css">
	.st0{fill:url(#SVGID_1_);}
	.st1{fill:url(#SVGID_00000014628811860071527290000013423106552279124361_);}
	.st2{fill:url(#SVGID_00000096037122767431686390000009950552829745213836_);}
	.st3{fill:url(#SVGID_00000152222327350358727910000011936259239041759367_);}
	.st4{fill:url(#SVGID_00000117639915898011900010000009354598761100476802_);}
	.st5{fill:url(#SVGID_00000114777416634692619920000000790439265747240603_);}
	.st6{fill:url(#SVGID_00000182509714074101887910000009281857130716518332_);}
	.st7{fill:url(#SVGID_00000048461987037634014410000011396503326145310612_);}
	.st8{fill:url(#SVGID_00000070099513122875690800000002643719059243098258_);}
	.st9{fill:url(#SVGID_00000176025531955111919560000006701960952310381490_);}
</style>
<g>
	<g>
		<g>
			<g>
				<linearGradient id="SVGID_1_" gradientUnits="userSpaceOnUse" x1="1114.3347" y1="-488.3825" x2="645.9334" y2="1614.6436">
					<stop  offset="0" style="stop-color:#1FFCB6"/>
					<stop  offset="1" style="stop-color:#006DAA"/>
				</linearGradient>
				<polyline class="st0" points="366.58,1130.36 736.42,1338.76 964.35,1211.39 964.35,803.57 1103.91,882.35 1103.91,1296.93 
					736.42,1515.27 366.58,1300.38 				"/>
				
					<linearGradient id="SVGID_00000034793039147144990140000016213132398096466853_" gradientUnits="userSpaceOnUse" x1="926.5541" y1="-530.2064" x2="458.1528" y2="1572.8197">
					<stop  offset="0" style="stop-color:#1FFCB6"/>
					<stop  offset="1" style="stop-color:#006DAA"/>
				</linearGradient>
				<polyline style="fill:url(#SVGID_00000034793039147144990140000016213132398096466853_);" points="1105.75,248.12 736.42,35.68 
					366.58,247.77 366.58,628.25 509.19,710.17 509.19,331.94 736.82,203.89 1102.17,417.5 				"/>
			</g>
			
				<linearGradient id="SVGID_00000007399372904028248340000001638582076648317326_" gradientUnits="userSpaceOnUse" x1="778.0383" y1="-563.2849" x2="309.637" y2="1539.7412">
				<stop  offset="0" style="stop-color:#1FFCB6"/>
				<stop  offset="1" style="stop-color:#006DAA"/>
			</linearGradient>
			<polygon style="fill:url(#SVGID_00000007399372904028248340000001638582076648317326_);" points="496.4,1225.61 366.58,1225.61 
				366.58,759.67 496.4,836.85 			"/>
			
				<linearGradient id="SVGID_00000013186088340855502860000017259104721270143413_" gradientUnits="userSpaceOnUse" x1="485.3137" y1="-628.4826" x2="16.9124" y2="1474.5435">
				<stop  offset="0" style="stop-color:#1FFCB6"/>
				<stop  offset="1" style="stop-color:#006DAA"/>
			</linearGradient>
			<polygon style="fill:url(#SVGID_00000013186088340855502860000017259104721270143413_);" points="100.53,393.23 100.53,601.45 
				100.53,678.07 100.53,1147.5 230.35,1222.17 230.35,678.07 230.35,628.73 230.35,316.05 			"/>
			
				<linearGradient id="SVGID_00000082365855473655885860000010438585216145600679_" gradientUnits="userSpaceOnUse" x1="1238.7145" y1="-460.6797" x2="770.3132" y2="1642.3463">
				<stop  offset="0" style="stop-color:#1FFCB6"/>
				<stop  offset="1" style="stop-color:#006DAA"/>
			</linearGradient>
			<polygon style="fill:url(#SVGID_00000082365855473655885860000010438585216145600679_);" points="952.78,254.56 1103.91,254.56 
				1095.35,751.55 944.22,666.6 			"/>
			
				<linearGradient id="SVGID_00000084491081168562843050000014116823295193790347_" gradientUnits="userSpaceOnUse" x1="1147.2034" y1="181.1204" x2="884.2" y2="1361.9518">
				<stop  offset="0" style="stop-color:#1FFCB6"/>
				<stop  offset="1" style="stop-color:#006DAA"/>
			</linearGradient>
			<polygon style="fill:url(#SVGID_00000084491081168562843050000014116823295193790347_);" points="903.64,767.82 903.64,941.37 
				996.33,995.41 1103.91,882.35 			"/>
			
				<linearGradient id="SVGID_00000134247516527536251130000003521573738624607152_" gradientUnits="userSpaceOnUse" x1="1548.3358" y1="-391.7186" x2="1079.9346" y2="1711.3075">
				<stop  offset="0" style="stop-color:#1FFCB6"/>
				<stop  offset="1" style="stop-color:#006DAA"/>
			</linearGradient>
			<polygon style="fill:url(#SVGID_00000134247516527536251130000003521573738624607152_);" points="1363.01,393.23 1363.01,601.45 
				1363.01,678.07 1363.01,1147.5 1233.19,1222.17 1233.19,678.07 1233.19,628.73 1233.19,316.05 			"/>
			
				<linearGradient id="SVGID_00000039832481141076128640000008413956311437215633_" gradientUnits="userSpaceOnUse" x1="1018.4033" y1="-509.7491" x2="550.002" y2="1593.277">
				<stop  offset="0" style="stop-color:#1FFCB6"/>
				<stop  offset="1" style="stop-color:#006DAA"/>
			</linearGradient>
			<polygon style="fill:url(#SVGID_00000039832481141076128640000008413956311437215633_);" points="725.77,1215.03 803.65,1172.14 
				803.65,503.05 727.91,459.14 652.17,416.89 652.17,1175.44 			"/>
			<g>
				
					<linearGradient id="SVGID_00000124135784944006627330000002719466661287235487_" gradientUnits="userSpaceOnUse" x1="650.6048" y1="-120.5245" x2="375.5301" y2="1114.5048">
					<stop  offset="0" style="stop-color:#1FFCB6"/>
					<stop  offset="1" style="stop-color:#006DAA"/>
				</linearGradient>
				<polygon style="fill:url(#SVGID_00000124135784944006627330000002719466661287235487_);" points="574.13,579.38 440.74,503.1 
					366.58,628.25 574.13,749.26 				"/>
				
					<linearGradient id="SVGID_00000174595818007732169790000010761529728053594285_" gradientUnits="userSpaceOnUse" x1="894.2398" y1="6.5939" x2="617.2786" y2="1250.0931">
					<stop  offset="0" style="stop-color:#1FFCB6"/>
					<stop  offset="1" style="stop-color:#006DAA"/>
				</linearGradient>
				<polygon style="fill:url(#SVGID_00000174595818007732169790000010761529728053594285_);" points="662.57,629.96 662.57,800.82 
					793.21,876.99 793.21,704.67 				"/>
			</g>
		</g>
	</g>
</g>
</svg>
